<svg display='none' xmlns="http://www.w3.org/2000/svg">

  <symbol id="phone" viewBox="0 0 15 15">
    <path d="m11.8 9.6-3-.3-1.3 1.4C5.9 10 4.6 8.7 3.8 7l1.4-1.4L5 2.7h-3a9.4 9.4 0 0 0 9.9 10v-3Z"/>
  </symbol>

  <symbol id="video-play" viewBox="0 0 50 50">
    <path fill-opacity=".9" d="M19.8 34.4 34.4 25l-14.6-9.4v18.8ZM25 45.8a20.3 20.3 0 0 1-14.7-6 21 21 0 0 1-4.5-23 21 21 0 0 1 11-11 20.3 20.3 0 0 1 16.3 0 21 21 0 0 1 11 11 20.3 20.3 0 0 1-4.5 22.9 21 21 0 0 1-14.6 6.1Z"/>
  </symbol>

  <symbol id="instagram" viewBox="0 0 18 15">
    <path d="M7.5 4.7a2.8 2.8 0 1 0 0 5.6 2.8 2.8 0 0 0 0-5.6Zm0 4.7a1.9 1.9 0 1 1 0-3.8 1.9 1.9 0 0 1 0 3.8Zm2.8-8H4.7a3.3 3.3 0 0 0-3.3 3.3v5.6a3.3 3.3 0 0 0 3.3 3.3h5.6a3.3 3.3 0 0 0 3.3-3.3V4.7a3.3 3.3 0 0 0-3.3-3.3Zm2.4 9a2.3 2.3 0 0 1-2.4 2.3H4.7a2.3 2.3 0 0 1-2.4-2.4V4.7a2.3 2.3 0 0 1 2.4-2.4h5.6a2.3 2.3 0 0 1 2.4 2.4v5.6Zm-1.4-6a.7.7 0 1 1-1.5 0 .7.7 0 0 1 1.4 0Z"/>
  </symbol>

  <symbol id="facebook" viewBox="0 0 22 22">
    <path fill="#000" d="M11 2a9 9 0 1 0 0 18 9 9 0 0 0 0-18Zm.7 16.5v-5.4h2a.7.7 0 1 0 0-1.4h-2v-2A1.4 1.4 0 0 1 13 8.2h1.3a.7.7 0 0 0 0-1.4h-1.3a2.7 2.7 0 0 0-2.8 2.7v2h-2a.7.7 0 1 0 0 1.5h2v5.4a7.6 7.6 0 1 1 1.4 0Z"/>
  </symbol>

  <symbol id="linkedin" viewBox="0 0 22 22">
    <path fill="#000" d="M9.2 14H7.7V9.3h1.5V14Zm-.7-5.4c-.6 0-.8-.2-.8-.7a.7.7 0 0 1 .2-.5l.6-.2c.5 0 .8.2.8.7 0 .5-.3.7-.8.7Zm6.1 5.4h-1.5v-2.6c0-.7-.2-1-.7-1-.4 0-.6.1-.8.5V14H10V9.3h1.2l.1.6c.4-.5.9-.8 1.5-.8.5 0 1 .2 1.3.6.3.3.4.8.4 1.5V14ZM11 19.3a8.3 8.3 0 1 1 0-16.6 8.3 8.3 0 0 1 0 16.6Zm0-14.7a6.4 6.4 0 1 0 0 12.8 6.4 6.4 0 0 0 0-12.8Z"/>
  </symbol>

  <symbol id="youtube" viewBox="0 0 22 22">
    <path stroke="#000" stroke-linecap="round" stroke-linejoin="round" d="M18 3.1H4A3.1 3.1 0 0 0 .7 6.3v9.4c0 1.8 1.4 3.2 3.1 3.2h14.2c1.7 0 3.1-1.4 3.1-3.2V6.3c0-1.7-1.4-3.2-3.1-3.2Z"/><path stroke="#000" stroke-linecap="round" stroke-linejoin="round" d="M8.3 14.6V8a.6.6 0 0 1 1-.5l5.6 3.3a.6.6 0 0 1 0 1.1l-5.6 3.3a.6.6 0 0 1-1-.6Z"/>
  </symbol>
</svg>
