<svg xmlns="http://www.w3.org/2000/svg" xml:space="preserve" width="512" height="512" style="enable-background:new 0 0 512 512" viewBox="0 0 64 64"><g data-name="Layer 32"><path fill="#e73844" d="M36 9c0-2.2-4-7-4-7s-4 4.8-4 7a4 4 0 0 0 8 0Z" data-original="#e73844"/><path fill="#ff4d55" d="M29 8a4 4 0 0 0 6.3 3.3A4 4 0 0 0 36 9c0-2-3.3-6.1-3.9-6.9C31 3.7 29 6.5 29 8Z" data-original="#ff4d55"/><path fill="#ffd98c" d="M45 50a16.6 16.6 0 0 1-1.8 7.5L41 62H23l-2.2-4.5a16.6 16.6 0 0 1-1.8-7.4 14.6 14.6 0 0 1 4.3-10.4 5.9 5.9 0 0 0 1.7-4.1 6.3 6.3 0 0 0-.1-1.2l-.3-1.4a4.5 4.5 0 0 1-1.6-3.4 4.3 4.3 0 0 1 .1-1.1l.4-1.5H21l-1-6 6-.8a2.3 2.3 0 0 0 2-2.2v-1h8v1a2.3 2.3 0 0 0 2 2.3l6 .7-1 6h-2.5l.4 1.5a4.3 4.3 0 0 1 .1 1 4.5 4.5 0 0 1-1.3 3.2 3.6 3.6 0 0 1-.3.3l-.3 1.4a6.3 6.3 0 0 0-.1 1.2 5.9 5.9 0 0 0 1.7 4.1A14.6 14.6 0 0 1 45 50.1Z" data-original="#ffd98c"/><path fill="#ffe1ae" d="M40.7 39.7a5.9 5.9 0 0 1-1.7-4.1 6.3 6.3 0 0 1 .1-1.2l.3-1.4a3.6 3.6 0 0 0 .3-.3 4.5 4.5 0 0 0 1.3-3.1 4.3 4.3 0 0 0-.1-1.1l-.4-1.5H43l1-6-6-.8a2.3 2.3 0 0 1-2-2.2v-1h-8v1a2.3 2.3 0 0 1-2 2.3l-1.2.1a32.3 32.3 0 0 1 3.2 9.5c2.3 13.4-5.6 20.5-1.8 26 2.8 4 10 4.6 16.2 3.4l.8-1.8a16.6 16.6 0 0 0 1.8-7.4 14.6 14.6 0 0 0-4.3-10.4Z" data-original="#ffe1ae"/><path fill="#f9cb5d" d="m38.5 48.9-1-1.8-4.2 2.5a2.7 2.7 0 0 1-2.6 0l-4.2-2.5-1 1.8 4.1 2.4a4.6 4.6 0 0 0 1.4.6V62h2V51.9a4.6 4.6 0 0 0 1.4-.6ZM31 43h2v2h-2z" data-original="#f9cb5d"/><path fill="#b3b3b3" d="M31 12h2v5h-2z" data-original="#b3b3b3"/><path fill="#f9cb5d" d="M36.5 35h-.3a5.4 5.4 0 0 1-4.2-2 5.4 5.4 0 0 1-4.2 2h-.3a5.5 5.5 0 0 1-5.3-6.8l.8-3.4 2 .4-.9 3.5a3.5 3.5 0 0 0 3.4 4.3h.3a3.4 3.4 0 0 0 3.3-2.3 1 1 0 0 1 1.9 0 3.4 3.4 0 0 0 3.2 2.3h.3a3.4 3.4 0 0 0 3.4-4.3l-.9-3.5 2-.4.8 3.4a5.5 5.5 0 0 1-5.3 6.8Z" data-original="#f9cb5d"/><path fill="#ffd98c" d="M29.4 12a4 4 0 0 0 5.3 0L32 8Z" data-original="#ffd98c"/><path fill="#ffeacd" d="M33 12a4 4 0 0 0 1.5-.3L32 8l-1.9 2.8A4 4 0 0 0 33 12Z" data-original="#ffeacd"/><path d="M18 50a17.8 17.8 0 0 0 1.9 8l2.2 4.4a1 1 0 0 0 .9.6h18a1 1 0 0 0 .9-.6l2.2-4.4a17.8 17.8 0 0 0 1.9-8 15.5 15.5 0 0 0-4.6-11 4.9 4.9 0 0 1-1.4-3.4 4.8 4.8 0 0 1 0-1l.3-1.1a5.4 5.4 0 0 0 1.5-5.3V28H43a1 1 0 0 0 1-.8l1-6A1 1 0 0 0 44 20l-6-.7A1.3 1.3 0 0 1 37 18v-1a1 1 0 0 0-1-1h-3v-2.1A5 5 0 0 0 37 9c0-2.4-3.5-6.8-4.2-7.6a1 1 0 0 0-1.6 0C30.5 2.2 27 6.6 27 9a5 5 0 0 0 4 4.9V16h-3a1 1 0 0 0-1 1v1a1.3 1.3 0 0 1-1.1 1.3l-6 .7a1 1 0 0 0-.9 1.2l1 6a1 1 0 0 0 1 .8h1.2v.2a5.5 5.5 0 0 0-.2 1.3 5.4 5.4 0 0 0 1.7 4l.2 1.1a4.8 4.8 0 0 1 .1 1 4.9 4.9 0 0 1-1.4 3.4A15.5 15.5 0 0 0 18 50Zm14-38a3 3 0 0 1-1.3-.3L32 9.8l1.3 1.9a3 3 0 0 1-1.3.3Zm0-8.4c1.4 1.9 3 4.3 3 5.4a3 3 0 0 1-.3 1.3l-1.9-2.9a1 1 0 0 0-1.6 0l-2 2.9A3 3 0 0 1 29 9c0-1 1.6-3.5 3-5.4Zm-9 21.2-.3 1.2h-.9l-.6-4.1 5-.7A3.3 3.3 0 0 0 29 18h6a3.3 3.3 0 0 0 2.9 3.2l5 .7-.7 4.1h-1l-.2-1.2-2 .4.9 3.5a3.4 3.4 0 0 1-3.4 4.3h-.3a3.4 3.4 0 0 1-3.3-2.3 1 1 0 0 0-1.9 0 3.4 3.4 0 0 1-3.2 2.3h-.3a3.5 3.5 0 0 1-3.4-4.3l.9-3.5Zm3 10.8a6.8 6.8 0 0 0 0-.8 5.4 5.4 0 0 0 1.4.2h.4a5.4 5.4 0 0 0 4.2-2 5.4 5.4 0 0 0 4.2 2h.3a5.4 5.4 0 0 0 1.5-.2 7 7 0 0 0 0 .8 6.9 6.9 0 0 0 2 4.8 13.6 13.6 0 0 1 4 9.7 15.8 15.8 0 0 1-1.7 7l-2 3.9H33v-9.1a4.6 4.6 0 0 0 1.4-.6l4.1-2.4-1-1.8-4.2 2.5a2.7 2.7 0 0 1-2.6 0l-4.2-2.5-1 1.8 4.1 2.4a4.6 4.6 0 0 0 1.4.6V61h-7.4l-2-4a15.8 15.8 0 0 1-1.6-7 13.6 13.6 0 0 1 4-9.6 6.9 6.9 0 0 0 2-4.8Z" data-original="#000000"/><path d="M31 43h2v2h-2z" data-original="#000000"/></g></svg>