<?xml version="1.0" standalone="no"?>
<!DOCTYPE svg PUBLIC "-//W3C//DTD SVG 20010904//EN"
 "http://www.w3.org/TR/2001/REC-SVG-20010904/DTD/svg10.dtd">
<svg version="1.0" xmlns="http://www.w3.org/2000/svg"
 width="512.000000pt" height="512.000000pt" viewBox="0 0 512.000000 512.000000"
 preserveAspectRatio="xMidYMid meet">
<metadata>
Created by potrace 1.14, written by Peter Selinger 2001-2017
</metadata>
<g transform="translate(0.000000,512.000000) scale(0.100000,-0.100000)"
fill="#000000" stroke="none">
<path d="M2530 5033 c-22 -8 -38 -27 -121 -138 -89 -119 -157 -226 -198 -315
-40 -86 -45 -111 -45 -201 1 -140 83 -267 217 -334 38 -19 76 -35 83 -35 11 0
14 -20 14 -85 l0 -85 -129 0 c-71 0 -137 -3 -146 -6 -26 -10 -45 -60 -45 -119
0 -65 -21 -109 -59 -125 -14 -5 -80 -17 -146 -25 -66 -9 -136 -17 -155 -20
-19 -2 -75 -10 -125 -16 -49 -6 -102 -18 -117 -25 -45 -23 -45 -32 -8 -249 11
-60 22 -128 26 -150 17 -116 35 -191 49 -204 9 -9 40 -17 77 -19 l63 -4 0
-112 c1 -130 21 -193 87 -277 48 -61 58 -90 63 -189 7 -119 -29 -216 -114
-305 -155 -162 -266 -357 -319 -560 -32 -122 -34 -139 -37 -301 -2 -145 13
-279 44 -382 5 -18 10 -34 11 -37 10 -53 79 -211 177 -408 82 -165 109 -210
129 -217 40 -16 1476 -13 1510 2 22 10 50 59 143 248 64 129 125 260 135 290
23 71 46 150 51 175 2 11 7 31 10 45 25 110 26 387 2 507 -21 101 -47 180 -83
258 -15 33 -28 62 -28 65 -10 38 -132 212 -200 285 -136 144 -164 236 -130
430 4 22 16 49 26 60 41 43 80 113 100 179 17 56 20 85 15 157 l-6 89 55 0
c75 0 100 18 113 83 13 66 20 103 26 147 3 19 8 44 10 56 3 12 7 39 10 60 3
21 10 62 15 89 20 109 21 134 6 164 -18 34 -40 41 -176 56 -36 4 -72 9 -80 10
-8 2 -42 6 -75 9 -33 4 -71 9 -85 11 -14 2 -47 7 -75 10 -106 11 -126 34 -135
148 -9 111 -10 111 -180 115 l-140 4 0 81 0 82 48 17 c221 79 325 313 234 526
-46 110 -174 312 -261 414 -11 13 -28 33 -38 45 -18 24 -66 37 -93 26z"/>
</g>
</svg>
